<?xml version="1.0" encoding="UTF-8" standalone="no"?>
<!DOCTYPE svg PUBLIC "-//W3C//DTD SVG 1.1//EN"
 "http://www.w3.org/Graphics/SVG/1.1/DTD/svg11.dtd">
<!-- Generated by graphviz version 2.40.1 (20161225.0304)
 -->
<!-- Title: dependencies Pages: 1 -->
<svg width="504pt" height="284pt"
 viewBox="0.00 0.00 504.00 284.00" xmlns="http://www.w3.org/2000/svg" xmlns:xlink="http://www.w3.org/1999/xlink">
<g id="graph0" class="graph" transform="scale(1 1) rotate(0) translate(4 280)">
<title>dependencies</title>
<polygon fill="#ffffff" stroke="transparent" points="-4,4 -4,-280 500,-280 500,4 -4,4"/>
<text text-anchor="start" x="227.0091" y="-42.4" font-family="sans-serif" font-weight="bold" font-size="14.00" fill="#000000">Legend</text>
<polygon fill="#ffffb3" stroke="transparent" points="14,-10 14,-30 34,-30 34,-10 14,-10"/>
<text text-anchor="start" x="37.629" y="-15.4" font-family="sans-serif" font-size="14.00" fill="#000000"> &#160;Declarations</text>
<polygon fill="#8dd3c7" stroke="transparent" points="127,-10 127,-30 147,-30 147,-10 127,-10"/>
<text text-anchor="start" x="150.7251" y="-15.4" font-family="sans-serif" font-size="14.00" fill="#000000"> &#160;Module</text>
<polygon fill="#80b1d3" stroke="transparent" points="213,-10 213,-30 233,-30 233,-10 213,-10"/>
<text text-anchor="start" x="236.7812" y="-15.4" font-family="sans-serif" font-size="14.00" fill="#000000"> &#160;Bootstrap</text>
<polygon fill="#fdb462" stroke="transparent" points="310,-10 310,-30 330,-30 330,-10 310,-10"/>
<text text-anchor="start" x="333.6732" y="-15.4" font-family="sans-serif" font-size="14.00" fill="#000000"> &#160;Providers</text>
<polygon fill="#fb8072" stroke="transparent" points="406,-10 406,-30 426,-30 426,-10 406,-10"/>
<text text-anchor="start" x="429.7258" y="-15.4" font-family="sans-serif" font-size="14.00" fill="#000000"> &#160;Exports</text>
<g id="clust1" class="cluster">
<title>cluster_AppModule</title>
<polygon fill="none" stroke="#000000" stroke-dasharray="1,5" points="119,-70 119,-268 259,-268 259,-70 119,-70"/>
</g>
<g id="clust2" class="cluster">
<title>cluster_AppModule_declarations</title>
<polygon fill="none" stroke="#000000" points="128,-78 128,-130 250,-130 250,-78 128,-78"/>
</g>
<g id="clust6" class="cluster">
<title>cluster_AppModule_bootstrap</title>
<polygon fill="none" stroke="#000000" points="127,-208 127,-260 251,-260 251,-208 127,-208"/>
</g>
<g id="clust8" class="cluster">
<title>cluster_TimerModule</title>
<polygon fill="none" stroke="#000000" stroke-dasharray="1,5" points="267,-70 267,-268 377,-268 377,-70 267,-70"/>
</g>
<g id="clust9" class="cluster">
<title>cluster_TimerModule_declarations</title>
<polygon fill="none" stroke="#000000" points="287,-78 287,-130 357,-130 357,-78 287,-78"/>
</g>
<g id="clust12" class="cluster">
<title>cluster_TimerModule_exports</title>
<polygon fill="none" stroke="#000000" points="287,-208 287,-260 357,-260 357,-208 287,-208"/>
</g>
<!-- AppComponent -->
<g id="node1" class="node">
<title>AppComponent</title>
<polygon fill="#ffffb3" stroke="#000000" points="241.9399,-122 136.0601,-122 136.0601,-86 241.9399,-86 241.9399,-122"/>
<text text-anchor="middle" x="189" y="-99.8" font-family="Times,serif" font-size="14.00" fill="#000000">AppComponent</text>
</g>
<!-- AppModule -->
<g id="node2" class="node">
<title>AppModule</title>
<polygon fill="#8dd3c7" stroke="#000000" points="230.6571,-187 227.6571,-191 206.6571,-191 203.6571,-187 147.3429,-187 147.3429,-151 230.6571,-151 230.6571,-187"/>
<text text-anchor="middle" x="189" y="-164.8" font-family="Times,serif" font-size="14.00" fill="#000000">AppModule</text>
</g>
<!-- AppComponent&#45;&gt;AppModule -->
<g id="edge1" class="edge">
<title>AppComponent&#45;&gt;AppModule</title>
<path fill="none" stroke="#000000" d="M189,-122.1061C189,-122.1061 189,-140.991 189,-140.991"/>
<polygon fill="#000000" stroke="#000000" points="185.5001,-140.9909 189,-150.991 192.5001,-140.991 185.5001,-140.9909"/>
</g>
<!-- AppComponent  -->
<g id="node3" class="node">
<title>AppComponent </title>
<polygon fill="#80b1d3" stroke="#000000" points="243.439,-252 134.561,-252 134.561,-216 243.439,-216 243.439,-252"/>
<text text-anchor="middle" x="189" y="-229.8" font-family="Times,serif" font-size="14.00" fill="#000000">AppComponent </text>
</g>
<!-- AppModule&#45;&gt;AppComponent  -->
<g id="edge2" class="edge">
<title>AppModule&#45;&gt;AppComponent </title>
<path fill="none" stroke="#000000" stroke-dasharray="1,5" d="M189,-187.1061C189,-187.1061 189,-205.991 189,-205.991"/>
<polygon fill="#000000" stroke="#000000" points="185.5001,-205.9909 189,-215.991 192.5001,-205.991 185.5001,-205.9909"/>
</g>
<!-- Timer -->
<g id="node4" class="node">
<title>Timer</title>
<polygon fill="#ffffb3" stroke="#000000" points="349,-122 295,-122 295,-86 349,-86 349,-122"/>
<text text-anchor="middle" x="322" y="-99.8" font-family="Times,serif" font-size="14.00" fill="#000000">Timer</text>
</g>
<!-- TimerModule -->
<g id="node5" class="node">
<title>TimerModule</title>
<polygon fill="#8dd3c7" stroke="#000000" points="368.7591,-187 365.7591,-191 344.7591,-191 341.7591,-187 275.2409,-187 275.2409,-151 368.7591,-151 368.7591,-187"/>
<text text-anchor="middle" x="322" y="-164.8" font-family="Times,serif" font-size="14.00" fill="#000000">TimerModule</text>
</g>
<!-- Timer&#45;&gt;TimerModule -->
<g id="edge3" class="edge">
<title>Timer&#45;&gt;TimerModule</title>
<path fill="none" stroke="#000000" d="M322,-122.1061C322,-122.1061 322,-140.991 322,-140.991"/>
<polygon fill="#000000" stroke="#000000" points="318.5001,-140.9909 322,-150.991 325.5001,-140.991 318.5001,-140.9909"/>
</g>
<!-- Timer  -->
<g id="node6" class="node">
<title>Timer </title>
<polygon fill="#fb8072" stroke="#000000" points="349,-252 295,-252 295,-216 349,-216 349,-252"/>
<text text-anchor="middle" x="322" y="-229.8" font-family="Times,serif" font-size="14.00" fill="#000000">Timer </text>
</g>
<!-- TimerModule&#45;&gt;Timer  -->
<g id="edge4" class="edge">
<title>TimerModule&#45;&gt;Timer </title>
<path fill="none" stroke="#000000" stroke-dasharray="5,2" d="M322,-187.1061C322,-187.1061 322,-205.991 322,-205.991"/>
<polygon fill="#000000" stroke="#000000" points="318.5001,-205.9909 322,-215.991 325.5001,-205.991 318.5001,-205.9909"/>
</g>
</g>
</svg>
